<?xml version="1.0" standalone="no"?>
<!DOCTYPE svg PUBLIC "-//W3C//DTD SVG 20010904//EN"
 "http://www.w3.org/TR/2001/REC-SVG-20010904/DTD/svg10.dtd">
<svg version="1.0" xmlns="http://www.w3.org/2000/svg"
 width="700.000000pt" height="700.000000pt" viewBox="0 0 700.000000 700.000000"
 preserveAspectRatio="xMidYMid meet">
<metadata>
Created by potrace 1.11, written by Peter Selinger 2001-2013
</metadata>
<g transform="translate(0.000000,700.000000) scale(0.100000,-0.100000)"
fill="#000000" stroke="none">
<path d="M3298 6996 c-1 -2 -41 -6 -88 -9 -588 -41 -1238 -277 -1725 -626
-544 -390 -947 -887 -1203 -1486 -99 -232 -176 -483 -216 -705 -9 -47 -18 -98
-21 -115 -3 -16 -8 -50 -11 -75 -3 -25 -7 -56 -10 -70 -25 -146 -25 -719 1
-820 2 -8 6 -42 10 -75 3 -33 8 -67 10 -75 3 -8 7 -31 9 -50 13 -102 109 -470
145 -555 5 -11 31 -76 57 -144 70 -182 159 -354 307 -595 7 -11 41 -61 76
-110 486 -686 1183 -1167 1993 -1375 65 -17 128 -32 140 -35 13 -2 61 -11 108
-20 201 -38 360 -51 620 -51 188 0 341 8 430 21 362 54 688 141 917 245 23 10
44 19 47 19 12 0 223 104 310 152 209 117 468 303 635 456 149 136 303 298
391 412 19 25 38 50 43 55 73 91 211 299 284 430 45 81 153 299 153 310 0 2
11 28 24 57 93 206 200 606 236 878 32 247 35 649 5 870 -2 19 -7 55 -9 80 -3
25 -8 56 -11 70 -2 14 -7 36 -10 50 -2 14 -7 41 -10 60 -7 42 -43 203 -55 245
-163 560 -419 1029 -781 1429 -68 76 -266 267 -344 333 -330 279 -745 511
-1150 644 -147 49 -370 105 -482 123 -33 5 -116 19 -123 21 -3 1 -41 5 -85 10
-44 4 -89 10 -100 12 -26 4 -512 13 -517 9z m-767 -435 c174 -71 318 -145 460
-236 95 -61 119 -78 118 -83 0 -4 -89 -272 -197 -597 l-197 -589 -150 -63
c-145 -60 -562 -264 -695 -339 -36 -20 -117 -69 -180 -107 -63 -39 -129 -78
-146 -88 l-30 -19 -96 59 c-52 32 -102 61 -109 64 -8 3 -138 80 -289 169 -174
104 -276 170 -278 182 -2 10 4 41 13 69 21 65 160 418 174 443 6 11 28 55 49
99 78 160 96 184 212 298 119 115 145 139 240 217 245 202 567 391 860 504 52
21 104 41 115 46 28 12 22 14 126 -29z m2255 -47 c80 -32 232 -107 319 -157
393 -223 704 -494 1011 -880 35 -43 165 -240 210 -317 68 -115 156 -291 150
-298 -3 -3 -40 18 -83 45 -163 105 -382 217 -553 283 -70 27 -92 40 -124 79
-21 25 -73 84 -116 131 -43 47 -96 107 -119 134 -23 27 -48 54 -54 61 -7 6
-37 40 -67 75 -30 35 -59 68 -65 74 -5 6 -44 49 -85 96 -41 47 -77 87 -80 90
-3 3 -55 61 -115 130 -60 69 -112 127 -115 130 -3 3 -43 47 -89 99 l-83 93 6
72 c3 39 5 72 6 74 0 4 7 2 46 -14z m-216 -287 c19 -23 76 -87 125 -142 50
-56 120 -135 156 -176 36 -40 162 -182 279 -314 117 -132 227 -256 244 -275
17 -20 65 -74 106 -120 41 -47 81 -92 87 -101 10 -13 3 -46 -42 -180 -30 -90
-59 -173 -64 -184 -5 -11 -58 -143 -117 -294 -88 -222 -113 -275 -129 -277
-11 -2 -47 -6 -80 -9 -61 -6 -133 -13 -195 -20 -33 -4 -79 -9 -190 -20 -25 -3
-74 -7 -110 -10 -36 -3 -76 -7 -90 -10 -14 -2 -54 -7 -90 -10 -36 -3 -81 -7
-100 -9 -62 -7 -144 -16 -205 -22 -33 -3 -78 -7 -100 -10 -22 -3 -65 -7 -95
-9 -30 -3 -68 -7 -85 -9 -16 -3 -59 -7 -95 -11 l-65 -7 -45 54 c-24 29 -61 71
-81 93 -47 52 -144 160 -183 205 -127 145 -187 211 -223 250 -23 25 -55 63
-71 85 -17 22 -71 80 -121 129 -49 49 -89 92 -87 95 2 3 45 132 95 286 93 282
101 307 104 314 1 2 52 153 112 335 124 371 103 339 220 351 28 3 66 8 85 10
19 2 64 7 100 10 36 3 81 8 100 10 19 3 70 7 112 10 43 3 101 8 130 11 29 2
107 7 173 10 66 4 121 7 122 8 2 1 64 1 140 -1 l137 -4 36 -42z m-3689 -1670
c114 -64 495 -291 506 -301 7 -7 13 -82 17 -221 4 -115 8 -226 10 -245 2 -19
7 -76 10 -126 4 -51 8 -100 10 -110 5 -23 13 -90 22 -169 3 -33 7 -67 9 -75 1
-8 6 -35 10 -60 4 -25 9 -54 11 -65 3 -11 11 -60 20 -110 9 -49 18 -93 20 -97
4 -6 -57 -107 -199 -326 -37 -56 -67 -105 -67 -108 0 -3 -5 -10 -11 -17 -5 -7
-82 -126 -171 -264 -88 -139 -164 -253 -169 -253 -30 0 -267 176 -395 293
l-100 92 -33 105 c-31 98 -56 188 -65 235 -2 11 -9 38 -14 60 -6 22 -13 54
-16 70 -3 17 -12 71 -20 120 -28 170 -37 294 -39 490 -1 144 9 371 18 385 1 3
6 37 9 75 4 39 9 77 11 85 2 8 6 29 9 45 14 84 18 103 27 140 19 71 134 266
265 452 l44 62 114 -69 c63 -37 134 -79 157 -93z m4469 -759 c142 -217 153
-234 229 -361 66 -109 120 -206 245 -440 l47 -88 -52 -97 c-28 -53 -66 -124
-84 -157 -29 -53 -78 -144 -217 -405 -23 -41 -55 -102 -73 -135 -18 -33 -54
-100 -80 -150 -26 -49 -60 -112 -75 -140 -15 -27 -46 -84 -68 -125 -96 -179
-111 -205 -119 -205 -9 -1 -96 -15 -123 -20 -9 -2 -35 -6 -56 -9 -22 -4 -64
-11 -94 -16 -30 -5 -77 -12 -105 -15 -80 -9 -127 -14 -175 -20 -239 -28 -673
-47 -689 -29 -5 5 -20 29 -33 54 -29 51 -84 148 -98 170 -11 18 -94 160 -122
210 -39 69 -356 616 -382 660 -15 25 -29 53 -33 63 -3 9 -9 17 -14 17 -5 0 -9
4 -9 10 0 5 -14 32 -30 60 l-30 52 29 51 c16 29 50 93 76 142 54 103 123 233
170 320 59 109 290 557 301 583 2 5 40 10 111 17 37 3 79 8 93 10 14 2 61 6
105 10 44 3 91 8 105 10 23 3 65 8 195 21 28 3 66 7 85 9 19 2 67 7 105 10 39
4 81 8 95 10 14 2 59 7 100 10 41 4 82 8 90 10 8 2 53 6 100 10 47 3 92 8 100
10 8 2 49 7 90 10 41 4 76 8 77 9 1 1 28 3 61 4 l59 3 93 -143z m1416 -575
c-2 -10 -7 -45 -10 -78 -18 -178 -54 -363 -112 -564 -24 -86 -48 -165 -54
-176 -5 -11 -23 -58 -41 -105 -77 -207 -235 -499 -381 -703 -177 -248 -428
-509 -670 -695 -37 -29 -69 -52 -72 -52 -2 0 -7 24 -11 53 -7 52 -10 71 -20
117 -2 14 -7 39 -10 55 -2 17 -16 75 -31 130 -53 201 -54 168 11 291 32 60 82
152 110 204 28 52 78 145 110 205 32 61 86 162 120 225 34 63 88 165 120 225
33 61 93 173 134 250 42 77 87 162 101 188 24 46 31 52 155 112 210 103 472
261 519 314 23 26 39 27 32 4z m-4921 -486 c256 -64 610 -135 920 -182 94 -15
175 -32 181 -38 7 -7 24 -34 39 -62 15 -27 91 -160 170 -295 78 -135 153 -265
167 -290 59 -105 311 -538 332 -570 l23 -36 -108 -149 c-60 -83 -148 -204
-196 -270 -48 -66 -102 -138 -121 -161 l-34 -41 -71 13 c-40 6 -90 15 -112 18
-22 4 -47 8 -55 11 -8 2 -31 6 -50 9 -19 3 -46 8 -60 10 -14 3 -79 15 -145 26
-153 27 -333 59 -365 65 -21 4 -111 20 -228 40 -12 2 -30 6 -40 9 -9 3 -35 7
-57 10 -95 12 -379 66 -385 73 -182 219 -434 596 -560 839 l-29 56 22 34 c12
19 91 143 176 277 85 133 184 288 220 344 36 56 95 147 130 203 46 72 68 99
80 96 9 -2 79 -20 156 -39z m178 -2107 c62 -11 123 -22 137 -25 14 -3 66 -12
115 -21 113 -19 106 -18 310 -55 94 -16 208 -37 255 -45 47 -8 96 -17 110 -19
14 -3 39 -7 55 -10 166 -30 194 -39 299 -89 111 -53 292 -125 318 -127 7 0 5
-3 -4 -7 -31 -12 -356 -3 -478 13 -14 2 -47 6 -75 9 -27 4 -75 11 -105 16 -30
5 -70 12 -89 15 -19 3 -37 7 -40 9 -3 2 -24 7 -46 10 -41 7 -240 59 -285 76
-14 5 -72 25 -129 45 -57 21 -137 52 -177 71 -41 19 -77 34 -82 34 -14 1 -227
120 -214 120 7 0 63 -9 125 -20z"/>
</g>
</svg>
