<svg xmlns="http://www.w3.org/2000/svg" width="36" height="36" viewBox="0 0 36 36">
  <metadata><?xpacket begin="﻿" id="W5M0MpCehiHzreSzNTczkc9d"?>
<x:xmpmeta xmlns:x="adobe:ns:meta/" x:xmptk="Adobe XMP Core 5.6-c138 79.159824, 2016/09/14-01:09:01        ">
   <rdf:RDF xmlns:rdf="http://www.w3.org/1999/02/22-rdf-syntax-ns#">
      <rdf:Description rdf:about=""/>
   </rdf:RDF>
</x:xmpmeta>
                                                                                                    
                                                                                                    
                                                                                                    
                                                                                                    
                                                                                                    
                                                                                                    
                                                                                                    
                                                                                                    
                                                                                                    
                                                                                                    
                                                                                                    
                                                                                                    
                                                                                                    
                                                                                                    
                                                                                                    
                                                                                                    
                                                                                                    
                                                                                                    
                                                                                                    
                                                                                                    
                           
<?xpacket end="w"?></metadata>
<defs>
    <style>
      .cls-1 {
        fill: #26a6d1;
      }

      .cls-2 {
        fill: #fff;
        fill-rule: evenodd;
      }
    </style>
  </defs>
  <circle class="cls-1" cx="18" cy="18" r="18" fill="#26a6d1"/>
  <path fill="#fff"
        fill-rule="evenodd" id="icon" class="cls-2" d="M547.926,2898.5a0.419,0.419,0,0,0-.153-0.57l-1.084-.63a0.41,0.41,0,0,0-.569.15l-1.661,2.93-1.831,3.23-1.528,2.7a0.418,0.418,0,0,0,.153.57l1.084,0.63a0.411,0.411,0,0,0,.569-0.15l2.123-3.75,1.372-2.42Zm-0.861,3.5-1.667,3.01h5.883l-1.5-3.01h-2.716Zm-5.083,6-1.083-.63a0.253,0.253,0,0,0-.408.21l-0.187,1.65c-0.027.23,0.107,0.31,0.3,0.18l1.4-.96A0.246,0.246,0,0,0,541.982,2908Zm11.833-4.35a0.309,0.309,0,0,1-.022-0.04c-0.1-.19-0.353-0.68-0.684-1.31,0-.01-0.008-0.02-0.012-0.03l-0.077-.15a1.1,1.1,0,0,1-.058-0.11c-0.016-.03-0.032-0.06-0.049-0.09-0.03-.06-0.059-0.12-0.09-0.18a0.27,0.27,0,0,1-.028-0.05c-0.033-.06-0.067-0.13-0.1-0.2a0.219,0.219,0,0,1-.03-0.05c-0.764-1.46-1.723-3.26-2.314-4.21-1.035-1.66-2.418-4.42-2.8-4.23-0.541.28,1.133,3.78,1.686,5.1s2.716,6.37,3.15,6.59a0.827,0.827,0,0,0,.891-0.02A0.794,0.794,0,0,0,553.815,2903.65ZM556,2902h-2.131l1.715,3.01H556a1,1,0,0,0,1-1v-1A1,1,0,0,0,556,2902Zm-13.732,0H540a1,1,0,0,0-1,1.01v1a1,1,0,0,0,1,1h0.468Zm12.783,4.26-0.516-1.01a0.454,0.454,0,0,0-.611-0.2l-0.622.32a0.419,0.419,0,0,0-.154.6l0.654,1.05a0.468,0.468,0,0,0,.631.15l0.444-.27A0.489,0.489,0,0,0,555.051,2906.26Zm-0.159,1.45a0.775,0.775,0,0,0-.081,1.17c0.465,0.66,1.507.69,1.645,1.13C556.456,2910.01,556.783,2906.63,554.892,2907.71Z" transform="translate(-530 -2884)"/>
</svg>
