<svg xmlns="http://www.w3.org/2000/svg" width="64.093" height="63.97" viewBox="0 0 64.093 63.97">
  <metadata><?xpacket begin="﻿" id="W5M0MpCehiHzreSzNTczkc9d"?>
<x:xmpmeta xmlns:x="adobe:ns:meta/" x:xmptk="Adobe XMP Core 5.6-c138 79.159824, 2016/09/14-01:09:01        ">
   <rdf:RDF xmlns:rdf="http://www.w3.org/1999/02/22-rdf-syntax-ns#">
      <rdf:Description rdf:about=""/>
   </rdf:RDF>
</x:xmpmeta>
                                                                                                    
                                                                                                    
                                                                                                    
                                                                                                    
                                                                                                    
                                                                                                    
                                                                                                    
                                                                                                    
                                                                                                    
                                                                                                    
                                                                                                    
                                                                                                    
                                                                                                    
                                                                                                    
                                                                                                    
                                                                                                    
                                                                                                    
                                                                                                    
                                                                                                    
                                                                                                    
                           
<?xpacket end="w"?></metadata>
<defs>
    <style>
      .cls-1 {
        fill: #c5c5c5;
        fill-rule: evenodd;
      }
    </style>
  </defs>
  <path fill="#c5c5c5" fill-rule="evenodd" id="Like" class="cls-1" d="M606.015,1188.97c-18.177,0-18.317-.75-20.568-2.45-1.2-.9-3.447-1.52-11.677-2.06a2.112,2.112,0,0,1-1.545-.73c-0.175-.21-4.287-6.21-4.287-15.81,0-9.47,2.943-13.78,3.069-13.98a1.987,1.987,0,0,1,1.7-.94c6.757,0,16.124-8.63,22.421-23.68,1.089-2.61,1.314-4.32,5.314-4.32a7.762,7.762,0,0,1,6.086,3.72c2.582,4.27,1.271,13.44.057,18.34,4.125-.03,11.591-0.09,15.144-0.09,4.943,0,8.213,2.95,8.313,7.26a11.674,11.674,0,0,1-.567,4.17,7.447,7.447,0,0,1,2.553,4.83c0.076,2.72-1.705,4.79-2.842,5.98a8.245,8.245,0,0,1,.732,3.1c-0.125,3.08-2.5,5.07-3.99,6.1a11.585,11.585,0,0,1-.051,3.67C624.8,1186.99,617.6,1188.97,606.015,1188.97Zm-31.183-8.56c7.168,0.59,11,1.39,13.021,2.91,1.564,1.18,1.323,1.65,18.162,1.65,5.137,0,15.182-.22,15.951-3.74,0.307-1.41-1.179-2.8-1.185-2.81a2.026,2.026,0,0,1,1.037-2.61c0.015-.01,4.008-1.44,4.1-3.67a3.138,3.138,0,0,0-.943-2.32,2.041,2.041,0,0,1,.514-2.76c0.01-.01,2.6-1.58,2.535-3.71-0.049-1.7-2.287-2.9-2.356-2.94a2.01,2.01,0,0,1-.611-2.96,6.716,6.716,0,0,0,.981-3.13c-0.075-3.25-3.565-3.35-4.313-3.35-5.045,0-18,.05-18,0.05a1.975,1.975,0,0,1-1.679-.88,2.115,2.115,0,0,1-.182-1.89c1.953-5.63,3.045-14.46,1.232-17.47-0.533-.89-0.656-1.78-2.656-1.78-0.277,0-.937.22-1.624,1.86-6.687,15.99-16.668,25.24-24.844,26.07a25.84,25.84,0,0,0-2.031,10.99A26.643,26.643,0,0,0,574.832,1180.41Z" transform="translate(-567.938 -1125)"/>
</svg>
