<svg xmlns="http://www.w3.org/2000/svg" width="64" height="60.06" viewBox="0 0 64 60.06">
  <metadata><?xpacket begin="﻿" id="W5M0MpCehiHzreSzNTczkc9d"?>
<x:xmpmeta xmlns:x="adobe:ns:meta/" x:xmptk="Adobe XMP Core 5.6-c138 79.159824, 2016/09/14-01:09:01        ">
   <rdf:RDF xmlns:rdf="http://www.w3.org/1999/02/22-rdf-syntax-ns#">
      <rdf:Description rdf:about=""/>
   </rdf:RDF>
</x:xmpmeta>
                                                                                                    
                                                                                                    
                                                                                                    
                                                                                                    
                                                                                                    
                                                                                                    
                                                                                                    
                                                                                                    
                                                                                                    
                                                                                                    
                                                                                                    
                                                                                                    
                                                                                                    
                                                                                                    
                                                                                                    
                                                                                                    
                                                                                                    
                                                                                                    
                                                                                                    
                                                                                                    
                           
<?xpacket end="w"?></metadata>
<defs>
    <style>
      .cls-1 {
        fill: #c5c5c5;
        fill-rule: evenodd;
      }
    </style>
  </defs>
  <path fill="#c5c5c5" fill-rule="evenodd" id="Present" class="cls-1" d="M935.472,1128.93c-7.349,0-13.49,7.83-16.375,12.21-2.887-4.38-9.215-12.21-16.564-12.21-5.586,0-7.576,3.76-7.576,7.23,0,7.04,7.207,10.84,13.81,10.84h20.658c6.6,0,13.623-3.8,13.623-10.84C943.048,1132.69,941.058,1128.93,935.472,1128.93Zm-26.7,14.07c-4.664,0-9.81-2.46-9.81-6.9,0-2.19,1.1-3.17,3.576-3.17,4.974,0,10.166,5.85,13.008,10.07h-6.774Zm20.658,0h-6.771c2.842-4.22,7.844-10.07,12.818-10.07,2.473,0,3.576,1.04,3.576,3.23C939.048,1140.6,934.089,1143,929.425,1143Zm17.553,4v7.97h-56V1147h56m0-4h-56a4,4,0,0,0-4,4v11.97h64V1147a4,4,0,0,0-4-4h0Zm-28,45.51a2,2,0,0,1-2-2v-40.89a2,2,0,0,1,4,0v40.89A2,2,0,0,1,918.978,1188.51Zm24.016-30.01v26.51H895.013V1158.5h-4v26.51a4,4,0,0,0,4,4h47.981a4,4,0,0,0,4-4V1158.5h-4Z" transform="translate(-886.969 -1128.94)"/>
</svg>
