<svg xmlns="http://www.w3.org/2000/svg" width="64" height="64" viewBox="0 0 64 64">
  <metadata><?xpacket begin="﻿" id="W5M0MpCehiHzreSzNTczkc9d"?>
<x:xmpmeta xmlns:x="adobe:ns:meta/" x:xmptk="Adobe XMP Core 5.6-c138 79.159824, 2016/09/14-01:09:01        ">
   <rdf:RDF xmlns:rdf="http://www.w3.org/1999/02/22-rdf-syntax-ns#">
      <rdf:Description rdf:about=""/>
   </rdf:RDF>
</x:xmpmeta>





















<?xpacket end="w"?></metadata>
<defs>
    <style>
      .cls-1 {
        fill: #c5c5c5;
        fill-rule: evenodd;
      }
    </style>
  </defs>
  <path fill="#c5c5c5" fill-rule="evenodd" id="Help" class="cls-1" d="M279,1125a32,32,0,1,1-32,32A32,32,0,0,1,279,1125Zm0,4.02a27.99,27.99,0,1,1-27.981,27.99A27.985,27.985,0,0,1,279,1129.02Zm0,12a15.99,15.99,0,1,1-15.979,15.99A15.985,15.985,0,0,1,279,1141.02Zm0,4a11.99,11.99,0,1,1-11.976,11.99A11.984,11.984,0,0,1,279,1145.02Zm4-16.02h4v16h-4v-16Zm-12,0h4v16h-4v-16Zm12,41.25h4v16h-4v-16Zm-12,0h4v16h-4v-16Zm37.375-9.25v4h-16v-4h16Zm0-12v4h-16v-4h16Zm-42,12v4h-16v-4h16Zm0-12v4h-16v-4h16Z" transform="translate(-247 -1125)"/>
</svg>
