<svg xmlns="http://www.w3.org/2000/svg" width="15" height="16" viewBox="0 0 15 16">
  <metadata><?xpacket begin="﻿" id="W5M0MpCehiHzreSzNTczkc9d"?>
<x:xmpmeta xmlns:x="adobe:ns:meta/" x:xmptk="Adobe XMP Core 5.6-c138 79.159824, 2016/09/14-01:09:01        ">
   <rdf:RDF xmlns:rdf="http://www.w3.org/1999/02/22-rdf-syntax-ns#">
      <rdf:Description rdf:about=""/>
   </rdf:RDF>
</x:xmpmeta>
                                                                                                    
                                                                                                    
                                                                                                    
                                                                                                    
                                                                                                    
                                                                                                    
                                                                                                    
                                                                                                    
                                                                                                    
                                                                                                    
                                                                                                    
                                                                                                    
                                                                                                    
                                                                                                    
                                                                                                    
                                                                                                    
                                                                                                    
                                                                                                    
                                                                                                    
                                                                                                    
                           
<?xpacket end="w"?></metadata>
<defs>
    <style>
      .cls-1 {
        fill: #fff;
        fill-rule: evenodd;
      }
    </style>
  </defs>
  <path fill="#fff" fill-rule="evenodd" id="g_" data-name="g+" class="cls-1" d="M990.52,96.224c-1.633-1.164-2.243-1.712-1.2-2.634s1.872-1.668,1.872-3.381a3.22,3.22,0,0,0-1.415-2.589,3.085,3.085,0,0,0,1.567-.155,5.735,5.735,0,0,0,.783-0.5h-5.2c-1.044,0-3.939,1.184-3.939,3.95s3,3.36,4.094,3.315A1.264,1.264,0,0,0,987.32,96c0.327,0.352.261,0.461-.13,0.461s-5.227.053-5.227,3.514,6.423,3.711,8.535,1.846A3.479,3.479,0,0,0,990.52,96.224Zm-3.092-2.679c-2.592,0-3.767-6.057-.719-6.057C989.082,87.4,990.868,93.545,987.428,93.545Zm-0.307,8.473c-2.154,0-3.308-1.075-3.308-2.678s1.568-2.393,4.508-2.393c0.8,0.614,2.22,1.36,2.22,2.854S989.273,102.018,987.121,102.018ZM995.015,87v1.97h1.959v1.022h-1.959v1.973H994V89.993h-1.993V88.971H994V87h1.017Z" transform="translate(-981.969 -86.969)"/>
</svg>
