<svg xmlns="http://www.w3.org/2000/svg" width="19" height="15" viewBox="0 0 19 15">
  <metadata><?xpacket begin="﻿" id="W5M0MpCehiHzreSzNTczkc9d"?>
<x:xmpmeta xmlns:x="adobe:ns:meta/" x:xmptk="Adobe XMP Core 5.6-c138 79.159824, 2016/09/14-01:09:01        ">
   <rdf:RDF xmlns:rdf="http://www.w3.org/1999/02/22-rdf-syntax-ns#">
      <rdf:Description rdf:about=""/>
   </rdf:RDF>
</x:xmpmeta>
                                                                                                    
                                                                                                    
                                                                                                    
                                                                                                    
                                                                                                    
                                                                                                    
                                                                                                    
                                                                                                    
                                                                                                    
                                                                                                    
                                                                                                    
                                                                                                    
                                                                                                    
                                                                                                    
                                                                                                    
                                                                                                    
                                                                                                    
                                                                                                    
                                                                                                    
                                                                                                    
                           
<?xpacket end="w"?></metadata>
<defs>
    <style>
      .cls-1 {
        fill: #fff;
        fill-rule: evenodd;
      }
    </style>
  </defs>
  <path fill="#fff" fill-rule="evenodd" id="bird" class="cls-1" d="M926,89.78a7.96,7.96,0,0,1-2.24.6,3.82,3.82,0,0,0,1.715-2.094A7.961,7.961,0,0,1,923,89.2a3.951,3.951,0,0,0-2.846-1.2,3.843,3.843,0,0,0-3.9,3.784,3.668,3.668,0,0,0,.1.863,11.183,11.183,0,0,1-8.037-3.954,3.679,3.679,0,0,0-.528,1.9,3.754,3.754,0,0,0,1.734,3.15,3.973,3.973,0,0,1-1.766-.474v0.048a3.816,3.816,0,0,0,3.128,3.71,4,4,0,0,1-1.761.065,3.889,3.889,0,0,0,3.642,2.628,7.973,7.973,0,0,1-4.842,1.62A8.151,8.151,0,0,1,907,101.3a11.277,11.277,0,0,0,5.977,1.7,10.848,10.848,0,0,0,11.093-10.767c0-.164,0-0.328-0.011-0.49A7.8,7.8,0,0,0,926,89.78Z" transform="translate(-907 -88)"/>
</svg>
