<svg xmlns="http://www.w3.org/2000/svg"><defs><style>.cls-1{fill:#26a6d1}.cls-2{fill:#fff;fill-rule:evenodd}</style><style>.cls-1{fill:#c5c5c5;fill-rule:evenodd}</style><style>.cls-1{fill:#c5c5c5;fill-rule:evenodd}</style><style>.cls-1{fill:#c5c5c5;fill-rule:evenodd}</style><style>.cls-1{font-size:13px;fill:#26a6d1}.cls-1,.cls-3{font-family:Arial;font-weight:700;text-transform:uppercase}.cls-2,.cls-3{font-size:28px}.cls-2{fill:#2b414d}.cls-2,.cls-3{letter-spacing:.01em}.cls-4{fill:#324d5b;font-family:Arial}.cls-5{fill:#51bba8}.cls-6{fill:#fff;fill-rule:evenodd}</style><style>.cls-1{font-size:13px;fill:#26a6d1}.cls-1,.cls-3{font-family:Arial;font-weight:700;text-transform:uppercase}.cls-2,.cls-3{font-size:28px}.cls-2{fill:#2b414d}.cls-2,.cls-3{letter-spacing:.01em}.cls-4{fill:#324d5b;font-family:Arial}.cls-5{fill:#51bba8}.cls-6{fill:#fff;fill-rule:evenodd}</style><style>.cls-1{fill:#fff;fill-rule:evenodd}</style><style>.cls-1{fill:#fff;fill-rule:evenodd}</style><style>.cls-1{fill:#fff;fill-rule:evenodd}</style></defs><symbol id="appstore" viewBox="0 0 36 36"><circle class="cls-1" cx="18" cy="18" r="18" fill="#26a6d1"/><path fill="#fff" fill-rule="evenodd" id="icon" class="cls-2" d="M547.926 2898.5a.419.419 0 0 0-.153-.57l-1.084-.63a.41.41 0 0 0-.569.15l-1.661 2.93-1.831 3.23-1.528 2.7a.418.418 0 0 0 .153.57l1.084.63a.411.411 0 0 0 .569-.15l2.123-3.75 1.372-2.42zm-.861 3.5l-1.667 3.01h5.883l-1.5-3.01h-2.716zm-5.083 6l-1.083-.63a.253.253 0 0 0-.408.21l-.187 1.65c-.027.23.107.31.3.18l1.4-.96a.246.246 0 0 0-.022-.45zm11.833-4.35a.309.309 0 0 1-.022-.04c-.1-.19-.353-.68-.684-1.31 0-.01-.008-.02-.012-.03l-.077-.15a1.1 1.1 0 0 1-.058-.11 3.986 3.986 0 0 0-.049-.09l-.09-.18a.27.27 0 0 1-.028-.05 3.724 3.724 0 0 1-.1-.2.219.219 0 0 1-.03-.05c-.764-1.46-1.723-3.26-2.314-4.21-1.035-1.66-2.418-4.42-2.8-4.23-.541.28 1.133 3.78 1.686 5.1s2.716 6.37 3.15 6.59a.827.827 0 0 0 .891-.02.794.794 0 0 0 .537-1.02zM556 2902h-2.131l1.715 3.01H556a1 1 0 0 0 1-1v-1a1 1 0 0 0-1-1.01zm-13.732 0H540a1 1 0 0 0-1 1.01v1a1 1 0 0 0 1 1h.468zm12.783 4.26l-.516-1.01a.454.454 0 0 0-.611-.2l-.622.32a.419.419 0 0 0-.154.6l.654 1.05a.468.468 0 0 0 .631.15l.444-.27a.489.489 0 0 0 .174-.64zm-.159 1.45a.775.775 0 0 0-.081 1.17c.465.66 1.507.69 1.645 1.13 0 0 .327-3.38-1.564-2.3z" transform="translate(-530 -2884)"/></symbol><symbol id="features-help" viewBox="0 0 64 64"><path fill="#c5c5c5" fill-rule="evenodd" id="Help" class="cls-1" d="M279 1125a32 32 0 1 1-32 32 32 32 0 0 1 32-32zm0 4.02a27.99 27.99 0 1 1-27.981 27.99A27.985 27.985 0 0 1 279 1129.02zm0 12a15.99 15.99 0 1 1-15.979 15.99A15.985 15.985 0 0 1 279 1141.02zm0 4a11.99 11.99 0 1 1-11.976 11.99A11.984 11.984 0 0 1 279 1145.02zm4-16.02h4v16h-4v-16zm-12 0h4v16h-4v-16zm12 41.25h4v16h-4v-16zm-12 0h4v16h-4v-16zm37.375-9.25v4h-16v-4h16zm0-12v4h-16v-4h16zm-42 12v4h-16v-4h16zm0-12v4h-16v-4h16z" transform="translate(-247 -1125)"/></symbol><symbol id="features-like" viewBox="0 0 64.093 63.97"><path fill="#c5c5c5" fill-rule="evenodd" id="Like" class="cls-1" d="M606.015 1188.97c-18.177 0-18.317-.75-20.568-2.45-1.2-.9-3.447-1.52-11.677-2.06a2.112 2.112 0 0 1-1.545-.73c-.175-.21-4.287-6.21-4.287-15.81 0-9.47 2.943-13.78 3.069-13.98a1.987 1.987 0 0 1 1.7-.94c6.757 0 16.124-8.63 22.421-23.68 1.089-2.61 1.314-4.32 5.314-4.32a7.762 7.762 0 0 1 6.086 3.72c2.582 4.27 1.271 13.44.057 18.34 4.125-.03 11.591-.09 15.144-.09 4.943 0 8.213 2.95 8.313 7.26a11.674 11.674 0 0 1-.567 4.17 7.447 7.447 0 0 1 2.553 4.83c.076 2.72-1.705 4.79-2.842 5.98a8.245 8.245 0 0 1 .732 3.1c-.125 3.08-2.5 5.07-3.99 6.1a11.585 11.585 0 0 1-.051 3.67c-1.077 4.91-8.277 6.89-19.862 6.89zm-31.183-8.56c7.168.59 11 1.39 13.021 2.91 1.564 1.18 1.323 1.65 18.162 1.65 5.137 0 15.182-.22 15.951-3.74.307-1.41-1.179-2.8-1.185-2.81a2.026 2.026 0 0 1 1.037-2.61c.015-.01 4.008-1.44 4.1-3.67a3.138 3.138 0 0 0-.943-2.32 2.041 2.041 0 0 1 .514-2.76c.01-.01 2.6-1.58 2.535-3.71-.049-1.7-2.287-2.9-2.356-2.94a2.01 2.01 0 0 1-.611-2.96 6.716 6.716 0 0 0 .981-3.13c-.075-3.25-3.565-3.35-4.313-3.35-5.045 0-18 .05-18 .05a1.975 1.975 0 0 1-1.679-.88 2.115 2.115 0 0 1-.182-1.89c1.953-5.63 3.045-14.46 1.232-17.47-.533-.89-.656-1.78-2.656-1.78-.277 0-.937.22-1.624 1.86-6.687 15.99-16.668 25.24-24.844 26.07a25.84 25.84 0 0 0-2.031 10.99 26.643 26.643 0 0 0 2.891 12.49z" transform="translate(-567.938 -1125)"/></symbol><symbol id="features-present" viewBox="0 0 64 60.06"><path fill="#c5c5c5" fill-rule="evenodd" id="Present" class="cls-1" d="M935.472 1128.93c-7.349 0-13.49 7.83-16.375 12.21-2.887-4.38-9.215-12.21-16.564-12.21-5.586 0-7.576 3.76-7.576 7.23 0 7.04 7.207 10.84 13.81 10.84h20.658c6.6 0 13.623-3.8 13.623-10.84 0-3.47-1.99-7.23-7.576-7.23zm-26.7 14.07c-4.664 0-9.81-2.46-9.81-6.9 0-2.19 1.1-3.17 3.576-3.17 4.974 0 10.166 5.85 13.008 10.07h-6.774zm20.658 0h-6.771c2.842-4.22 7.844-10.07 12.818-10.07 2.473 0 3.576 1.04 3.576 3.23-.005 4.44-4.964 6.84-9.628 6.84zm17.553 4v7.97h-56V1147h56m0-4h-56a4 4 0 0 0-4 4v11.97h64V1147a4 4 0 0 0-4-4zm-28 45.51a2 2 0 0 1-2-2v-40.89a2 2 0 0 1 4 0v40.89a2 2 0 0 1-2.005 2zm24.016-30.01v26.51h-47.986v-26.51h-4v26.51a4 4 0 0 0 4 4h47.981a4 4 0 0 0 4-4v-26.51h-4z" transform="translate(-886.969 -1128.94)"/></symbol><symbol id="logo-img" viewBox="0 0 64 52"><g id="pic"><rect fill="#51bba8" id="base" class="cls-5" width="64" height="52" rx="4" ry="4"/><path fill="#fff" fill-rule="evenodd" id="lines" class="cls-6" d="M188 73h-52a2.075 2.075 0 0 0-2 2v40a2.12 2.12 0 0 0 2 2h52a2.091 2.091 0 0 0 2-2V75a2.117 2.117 0 0 0-2-2zm-28 27.649a5.98 5.98 0 0 1 0-11.3v11.3zm4-11.3a5.98 5.98 0 0 1 0 11.3v-11.3zM140 113a2 2 0 0 1-2-2V79a2 2 0 0 1 2-2h20v8.2a10 10 0 0 0 0 19.6v8.2h-20zm46-2a2 2 0 0 1-2 2h-20v-8.2a10 10 0 0 0 0-19.6V77h20a2 2 0 0 1 2 2v32z" transform="translate(-130 -69)"/></g></symbol><symbol id="logo" viewBox="0 0 262 52"><text font-size="13" fill="#26a6d1" font-family="Arial" font-weight="700" id="YOUR_SPORT_DASHBOARD" data-name="YOUR SPORT DASHBOARD" class="cls-1" x="87.817" y="47.437">YOUR SPORT DASHBOARD</text><text font-size="28" fill="#2b414d" letter-spacing=".01em" id="SPORTHERE" class="cls-2" x="85.816" y="26.438"><tspan font-family="Arial" font-weight="700" class="cls-3">SPORT</tspan><tspan fill="#324d5b" font-family="Arial" class="cls-4">HERE</tspan></text><g id="pic"><rect fill="#51bba8" id="base" class="cls-5" width="64" height="52" rx="4" ry="4"/><path fill="#fff" fill-rule="evenodd" id="lines" class="cls-6" d="M188 73h-52a2.075 2.075 0 0 0-2 2v40a2.12 2.12 0 0 0 2 2h52a2.091 2.091 0 0 0 2-2V75a2.117 2.117 0 0 0-2-2zm-28 27.649a5.98 5.98 0 0 1 0-11.3v11.3zm4-11.3a5.98 5.98 0 0 1 0 11.3v-11.3zM140 113a2 2 0 0 1-2-2V79a2 2 0 0 1 2-2h20v8.2a10 10 0 0 0 0 19.6v8.2h-20zm46-2a2 2 0 0 1-2 2h-20v-8.2a10 10 0 0 0 0-19.6V77h20a2 2 0 0 1 2 2v32z" transform="translate(-130 -69)"/></g></symbol><symbol id="social-fb" viewBox="0 0 8 16"><path fill="#fff" fill-rule="evenodd" id="f" class="cls-1" d="M844.948 90.015h2.062v-3.046h-2.424v.011c-2.936.1-3.539 1.755-3.591 3.489h-.006v1.52h-2v2.984h2v8H844v-8h2.469l.476-2.984H844v-.918a.983.983 0 0 1 .948-1.056z" transform="translate(-839 -86.969)"/></symbol><symbol id="social-gp" viewBox="0 0 15 16"><path fill="#fff" fill-rule="evenodd" id="g_" data-name="g+" class="cls-1" d="M990.52 96.224c-1.633-1.164-2.243-1.712-1.2-2.634s1.872-1.668 1.872-3.381a3.22 3.22 0 0 0-1.415-2.589 3.085 3.085 0 0 0 1.567-.155 5.735 5.735 0 0 0 .783-.5h-5.2c-1.044 0-3.939 1.184-3.939 3.95s3 3.36 4.094 3.315a1.264 1.264 0 0 0 .238 1.77c.327.352.261.461-.13.461s-5.227.053-5.227 3.514 6.423 3.711 8.535 1.846a3.479 3.479 0 0 0 .022-5.597zm-3.092-2.679c-2.592 0-3.767-6.057-.719-6.057 2.373-.088 4.159 6.057.719 6.057zm-.307 8.473c-2.154 0-3.308-1.075-3.308-2.678s1.568-2.393 4.508-2.393c.8.614 2.22 1.36 2.22 2.854s-1.268 2.217-3.42 2.217zM995.015 87v1.97h1.959v1.022h-1.959v1.973H994v-1.972h-1.993v-1.022H994V87h1.017z" transform="translate(-981.969 -86.969)"/></symbol><symbol id="social-tw" viewBox="0 0 19 15"><path fill="#fff" fill-rule="evenodd" id="bird" class="cls-1" d="M926 89.78a7.96 7.96 0 0 1-2.24.6 3.82 3.82 0 0 0 1.715-2.094A7.961 7.961 0 0 1 923 89.2a3.951 3.951 0 0 0-2.846-1.2 3.843 3.843 0 0 0-3.9 3.784 3.668 3.668 0 0 0 .1.863 11.183 11.183 0 0 1-8.037-3.954 3.679 3.679 0 0 0-.528 1.9 3.754 3.754 0 0 0 1.734 3.15 3.973 3.973 0 0 1-1.766-.474v.048a3.816 3.816 0 0 0 3.128 3.71 4 4 0 0 1-1.761.065 3.889 3.889 0 0 0 3.642 2.628 7.973 7.973 0 0 1-4.842 1.62 8.151 8.151 0 0 1-.924-.04 11.277 11.277 0 0 0 5.977 1.7 10.848 10.848 0 0 0 11.093-10.767c0-.164 0-.328-.011-.49A7.8 7.8 0 0 0 926 89.78z" transform="translate(-907 -88)"/></symbol></svg>